<?xml version="1.0" encoding="UTF-8" standalone="no"?>
<!DOCTYPE svg PUBLIC "-//W3C//DTD SVG 1.1//EN"
 "http://www.w3.org/Graphics/SVG/1.1/DTD/svg11.dtd">
<!-- Generated by graphviz version 7.0.5 (20221231.0122)
 -->
<!-- Title: snakemake_dag Pages: 1 -->
<svg width="435pt" height="404pt"
 viewBox="0.00 0.00 435.00 404.00" xmlns="http://www.w3.org/2000/svg" xmlns:xlink="http://www.w3.org/1999/xlink">
<g id="graph0" class="graph" transform="scale(1 1) rotate(0) translate(4 400)">
<title>snakemake_dag</title>
<polygon fill="white" stroke="none" points="-4,4 -4,-400 431,-400 431,4 -4,4"/>
<!-- 0 -->
<g id="node1" class="node">
<title>0</title>
<path fill="none" stroke="#59d856" stroke-width="2" d="M207,-36C207,-36 177,-36 177,-36 171,-36 165,-30 165,-24 165,-24 165,-12 165,-12 165,-6 171,0 177,0 177,0 207,0 207,0 213,0 219,-6 219,-12 219,-12 219,-24 219,-24 219,-30 213,-36 207,-36"/>
<text text-anchor="middle" x="192" y="-15.5" font-family="sans" font-size="10.00">all</text>
</g>
<!-- 1 -->
<g id="node2" class="node">
<title>1</title>
<path fill="none" stroke="#d85656" stroke-width="2" d="M213.5,-108C213.5,-108 170.5,-108 170.5,-108 164.5,-108 158.5,-102 158.5,-96 158.5,-96 158.5,-84 158.5,-84 158.5,-78 164.5,-72 170.5,-72 170.5,-72 213.5,-72 213.5,-72 219.5,-72 225.5,-78 225.5,-84 225.5,-84 225.5,-96 225.5,-96 225.5,-102 219.5,-108 213.5,-108"/>
<text text-anchor="middle" x="192" y="-87.5" font-family="sans" font-size="10.00">plot_quals</text>
</g>
<!-- 1&#45;&gt;0 -->
<g id="edge1" class="edge">
<title>1&#45;&gt;0</title>
<path fill="none" stroke="grey" stroke-width="2" d="M192,-71.34C192,-64.75 192,-57.08 192,-49.67"/>
<polygon fill="grey" stroke="grey" stroke-width="2" points="195.5,-49.93 192,-39.93 188.5,-49.93 195.5,-49.93"/>
</g>
<!-- 2 -->
<g id="node3" class="node">
<title>2</title>
<path fill="none" stroke="#afd856" stroke-width="2" d="M218.5,-180C218.5,-180 165.5,-180 165.5,-180 159.5,-180 153.5,-174 153.5,-168 153.5,-168 153.5,-156 153.5,-156 153.5,-150 159.5,-144 165.5,-144 165.5,-144 218.5,-144 218.5,-144 224.5,-144 230.5,-150 230.5,-156 230.5,-156 230.5,-168 230.5,-168 230.5,-174 224.5,-180 218.5,-180"/>
<text text-anchor="middle" x="192" y="-159.5" font-family="sans" font-size="10.00">bcftools_call</text>
</g>
<!-- 2&#45;&gt;1 -->
<g id="edge2" class="edge">
<title>2&#45;&gt;1</title>
<path fill="none" stroke="grey" stroke-width="2" d="M192,-143.34C192,-136.75 192,-129.08 192,-121.67"/>
<polygon fill="grey" stroke="grey" stroke-width="2" points="195.5,-121.93 192,-111.93 188.5,-121.93 195.5,-121.93"/>
</g>
<!-- 3 -->
<g id="node4" class="node">
<title>3</title>
<path fill="none" stroke="#d8ac56" stroke-width="2" d="M74,-324C74,-324 12,-324 12,-324 6,-324 0,-318 0,-312 0,-312 0,-300 0,-300 0,-294 6,-288 12,-288 12,-288 74,-288 74,-288 80,-288 86,-294 86,-300 86,-300 86,-312 86,-312 86,-318 80,-324 74,-324"/>
<text text-anchor="middle" x="43" y="-303.5" font-family="sans" font-size="10.00">samtools_sort</text>
</g>
<!-- 3&#45;&gt;2 -->
<g id="edge3" class="edge">
<title>3&#45;&gt;2</title>
<path fill="none" stroke="grey" stroke-width="2" d="M31.66,-287.23C20.94,-267.92 8.59,-237.02 24,-216 50.26,-180.18 100.79,-167.94 139.61,-164.06"/>
<polygon fill="grey" stroke="grey" stroke-width="2" points="139.82,-167.56 149.51,-163.27 139.27,-160.58 139.82,-167.56"/>
</g>
<!-- 9 -->
<g id="node10" class="node">
<title>9</title>
<path fill="none" stroke="#56a9d8" stroke-width="2" d="M115,-252C115,-252 45,-252 45,-252 39,-252 33,-246 33,-240 33,-240 33,-228 33,-228 33,-222 39,-216 45,-216 45,-216 115,-216 115,-216 121,-216 127,-222 127,-228 127,-228 127,-240 127,-240 127,-246 121,-252 115,-252"/>
<text text-anchor="middle" x="80" y="-231.5" font-family="sans" font-size="10.00">samtools_index</text>
</g>
<!-- 3&#45;&gt;9 -->
<g id="edge12" class="edge">
<title>3&#45;&gt;9</title>
<path fill="none" stroke="grey" stroke-width="2" d="M52.34,-287.34C56.03,-280.34 60.38,-272.12 64.52,-264.28"/>
<polygon fill="grey" stroke="grey" stroke-width="2" points="67.54,-266.05 69.12,-255.58 61.36,-262.78 67.54,-266.05"/>
</g>
<!-- 4 -->
<g id="node5" class="node">
<title>4</title>
<path fill="none" stroke="#56d8a9" stroke-width="2" d="M63.5,-396C63.5,-396 22.5,-396 22.5,-396 16.5,-396 10.5,-390 10.5,-384 10.5,-384 10.5,-372 10.5,-372 10.5,-366 16.5,-360 22.5,-360 22.5,-360 63.5,-360 63.5,-360 69.5,-360 75.5,-366 75.5,-372 75.5,-372 75.5,-384 75.5,-384 75.5,-390 69.5,-396 63.5,-396"/>
<text text-anchor="middle" x="43" y="-381" font-family="sans" font-size="10.00">bwa_map</text>
<text text-anchor="middle" x="43" y="-370" font-family="sans" font-size="10.00">sample: A</text>
</g>
<!-- 4&#45;&gt;3 -->
<g id="edge9" class="edge">
<title>4&#45;&gt;3</title>
<path fill="none" stroke="grey" stroke-width="2" d="M43,-359.34C43,-352.75 43,-345.08 43,-337.67"/>
<polygon fill="grey" stroke="grey" stroke-width="2" points="46.5,-337.93 43,-327.93 39.5,-337.93 46.5,-337.93"/>
</g>
<!-- 5 -->
<g id="node6" class="node">
<title>5</title>
<path fill="none" stroke="#d8ac56" stroke-width="2" d="M235,-324C235,-324 173,-324 173,-324 167,-324 161,-318 161,-312 161,-312 161,-300 161,-300 161,-294 167,-288 173,-288 173,-288 235,-288 235,-288 241,-288 247,-294 247,-300 247,-300 247,-312 247,-312 247,-318 241,-324 235,-324"/>
<text text-anchor="middle" x="204" y="-303.5" font-family="sans" font-size="10.00">samtools_sort</text>
</g>
<!-- 5&#45;&gt;2 -->
<g id="edge4" class="edge">
<title>5&#45;&gt;2</title>
<path fill="none" stroke="grey" stroke-width="2" d="M190.96,-287.37C184.48,-277.51 177.34,-264.68 174,-252 168.88,-232.56 173.33,-210.41 179.08,-193.07"/>
<polygon fill="grey" stroke="grey" stroke-width="2" points="182.35,-194.3 182.54,-183.71 175.79,-191.87 182.35,-194.3"/>
</g>
<!-- 10 -->
<g id="node11" class="node">
<title>10</title>
<path fill="none" stroke="#56a9d8" stroke-width="2" d="M265,-252C265,-252 195,-252 195,-252 189,-252 183,-246 183,-240 183,-240 183,-228 183,-228 183,-222 189,-216 195,-216 195,-216 265,-216 265,-216 271,-216 277,-222 277,-228 277,-228 277,-240 277,-240 277,-246 271,-252 265,-252"/>
<text text-anchor="middle" x="230" y="-231.5" font-family="sans" font-size="10.00">samtools_index</text>
</g>
<!-- 5&#45;&gt;10 -->
<g id="edge13" class="edge">
<title>5&#45;&gt;10</title>
<path fill="none" stroke="grey" stroke-width="2" d="M210.56,-287.34C213.07,-280.59 216,-272.69 218.82,-265.11"/>
<polygon fill="grey" stroke="grey" stroke-width="2" points="222.1,-266.33 222.3,-255.74 215.53,-263.9 222.1,-266.33"/>
</g>
<!-- 6 -->
<g id="node7" class="node">
<title>6</title>
<path fill="none" stroke="#56d8a9" stroke-width="2" d="M224.5,-396C224.5,-396 183.5,-396 183.5,-396 177.5,-396 171.5,-390 171.5,-384 171.5,-384 171.5,-372 171.5,-372 171.5,-366 177.5,-360 183.5,-360 183.5,-360 224.5,-360 224.5,-360 230.5,-360 236.5,-366 236.5,-372 236.5,-372 236.5,-384 236.5,-384 236.5,-390 230.5,-396 224.5,-396"/>
<text text-anchor="middle" x="204" y="-381" font-family="sans" font-size="10.00">bwa_map</text>
<text text-anchor="middle" x="204" y="-370" font-family="sans" font-size="10.00">sample: B</text>
</g>
<!-- 6&#45;&gt;5 -->
<g id="edge10" class="edge">
<title>6&#45;&gt;5</title>
<path fill="none" stroke="grey" stroke-width="2" d="M204,-359.34C204,-352.75 204,-345.08 204,-337.67"/>
<polygon fill="grey" stroke="grey" stroke-width="2" points="207.5,-337.93 204,-327.93 200.5,-337.93 207.5,-337.93"/>
</g>
<!-- 7 -->
<g id="node8" class="node">
<title>7</title>
<path fill="none" stroke="#d8ac56" stroke-width="2" d="M362,-324C362,-324 300,-324 300,-324 294,-324 288,-318 288,-312 288,-312 288,-300 288,-300 288,-294 294,-288 300,-288 300,-288 362,-288 362,-288 368,-288 374,-294 374,-300 374,-300 374,-312 374,-312 374,-318 368,-324 362,-324"/>
<text text-anchor="middle" x="331" y="-303.5" font-family="sans" font-size="10.00">samtools_sort</text>
</g>
<!-- 7&#45;&gt;2 -->
<g id="edge5" class="edge">
<title>7&#45;&gt;2</title>
<path fill="none" stroke="grey" stroke-width="2" d="M325.47,-287.09C318.73,-267.66 305.74,-236.65 286,-216 273.83,-203.26 257.92,-192.73 242.65,-184.51"/>
<polygon fill="grey" stroke="grey" stroke-width="2" points="244.38,-181.46 233.88,-180.04 241.2,-187.7 244.38,-181.46"/>
</g>
<!-- 11 -->
<g id="node12" class="node">
<title>11</title>
<path fill="none" stroke="#56a9d8" stroke-width="2" d="M415,-252C415,-252 345,-252 345,-252 339,-252 333,-246 333,-240 333,-240 333,-228 333,-228 333,-222 339,-216 345,-216 345,-216 415,-216 415,-216 421,-216 427,-222 427,-228 427,-228 427,-240 427,-240 427,-246 421,-252 415,-252"/>
<text text-anchor="middle" x="380" y="-231.5" font-family="sans" font-size="10.00">samtools_index</text>
</g>
<!-- 7&#45;&gt;11 -->
<g id="edge14" class="edge">
<title>7&#45;&gt;11</title>
<path fill="none" stroke="grey" stroke-width="2" d="M343.36,-287.34C348.43,-280.1 354.43,-271.53 360.08,-263.45"/>
<polygon fill="grey" stroke="grey" stroke-width="2" points="362.87,-265.58 365.73,-255.38 357.13,-261.57 362.87,-265.58"/>
</g>
<!-- 8 -->
<g id="node9" class="node">
<title>8</title>
<path fill="none" stroke="#56d8a9" stroke-width="2" d="M351.5,-396C351.5,-396 310.5,-396 310.5,-396 304.5,-396 298.5,-390 298.5,-384 298.5,-384 298.5,-372 298.5,-372 298.5,-366 304.5,-360 310.5,-360 310.5,-360 351.5,-360 351.5,-360 357.5,-360 363.5,-366 363.5,-372 363.5,-372 363.5,-384 363.5,-384 363.5,-390 357.5,-396 351.5,-396"/>
<text text-anchor="middle" x="331" y="-381" font-family="sans" font-size="10.00">bwa_map</text>
<text text-anchor="middle" x="331" y="-370" font-family="sans" font-size="10.00">sample: C</text>
</g>
<!-- 8&#45;&gt;7 -->
<g id="edge11" class="edge">
<title>8&#45;&gt;7</title>
<path fill="none" stroke="grey" stroke-width="2" d="M331,-359.34C331,-352.75 331,-345.08 331,-337.67"/>
<polygon fill="grey" stroke="grey" stroke-width="2" points="334.5,-337.93 331,-327.93 327.5,-337.93 334.5,-337.93"/>
</g>
<!-- 9&#45;&gt;2 -->
<g id="edge6" class="edge">
<title>9&#45;&gt;2</title>
<path fill="none" stroke="grey" stroke-width="2" d="M108.55,-215.15C121.98,-206.76 138.21,-196.62 152.76,-187.52"/>
<polygon fill="grey" stroke="grey" stroke-width="2" points="154.31,-190.68 160.93,-182.42 150.6,-184.75 154.31,-190.68"/>
</g>
<!-- 10&#45;&gt;2 -->
<g id="edge7" class="edge">
<title>10&#45;&gt;2</title>
<path fill="none" stroke="grey" stroke-width="2" d="M220.41,-215.34C216.61,-208.34 212.15,-200.12 207.89,-192.28"/>
<polygon fill="grey" stroke="grey" stroke-width="2" points="211.01,-190.68 203.16,-183.56 204.86,-194.02 211.01,-190.68"/>
</g>
<!-- 11&#45;&gt;2 -->
<g id="edge8" class="edge">
<title>11&#45;&gt;2</title>
<path fill="none" stroke="grey" stroke-width="2" d="M332.07,-215.15C304.88,-205.03 270.84,-192.36 243.13,-182.04"/>
<polygon fill="grey" stroke="grey" stroke-width="2" points="244.72,-178.89 234.13,-178.68 242.28,-185.45 244.72,-178.89"/>
</g>
</g>
</svg>
